<?xml version="1.0" encoding="iso-8859-1"?>
<!-- Generator: Adobe Illustrator 19.0.0, SVG Export Plug-In . SVG Version: 6.00 Build 0)  -->
<svg version="1.1" id="Layer_1" xmlns="http://www.w3.org/2000/svg" xmlns:xlink="http://www.w3.org/1999/xlink" x="0px" y="0px"
	 viewBox="0 0 2000 2000" style="enable-background:new 0 0 2000 2000;" xml:space="preserve">
<g id="XMLID_76_">
	<polygon id="XMLID_79_" style="fill:#010101;" points="625.491,518.6 518.097,518.6 518.097,1160.497 438.214,1160.497 
		438.214,1267.526 518.097,1267.526 518.097,1481.4 625.491,1481.4 625.491,1267.526 705.74,1267.526 705.74,1160.497 
		625.491,1160.497 	"/>
	<polygon id="XMLID_78_" style="fill:#010101;" points="1053.423,518.6 946.76,518.6 946.76,732.657 866.146,732.657 
		866.146,839.686 946.76,839.686 946.76,1481.4 1053.423,1481.4 1053.423,839.686 1133.671,839.686 1133.671,732.657 
		1053.423,732.657 	"/>
	<polygon id="XMLID_77_" style="fill:#010101;" points="1561.786,1160.497 1481.354,1160.497 1481.354,518.6 1374.691,518.6 
		1374.691,1160.497 1294.26,1160.497 1294.26,1267.526 1374.691,1267.526 1374.691,1481.4 1481.354,1481.4 1481.354,1267.526 
		1561.786,1267.526 	"/>
</g>
</svg>
