<?xml version="1.0" encoding="iso-8859-1"?>
<!-- Generator: Adobe Illustrator 19.0.0, SVG Export Plug-In . SVG Version: 6.00 Build 0)  -->
<svg version="1.1" id="Layer_1" xmlns="http://www.w3.org/2000/svg" xmlns:xlink="http://www.w3.org/1999/xlink" x="0px" y="0px"
	 viewBox="0 0 6468 1000" style="enable-background:new 0 0 6468 1000;" xml:space="preserve">
<g>
	<g>
		<path style="fill:#FFFFFF;" d="M3521.044,982c0,9.941,8.059,18,18,18h114c9.941,0,18-8.059,18-18V18c0-9.941-8.059-18-18-18h-114
			c-9.941,0-18,8.059-18,18V982z"/>
		<path style="fill:#FFFFFF;" d="M3901.387,496.213c-2.505-3.008-2.466-7.386,0.092-10.349l316.745-366.796
			c2.823-3.269,4.376-7.445,4.376-11.764V18c0-9.941-8.059-18-18-18h-63.317c-5.231,0-10.204,2.276-13.624,6.236l-408.637,473.21
			c-5.756,6.666-5.844,16.518-0.207,23.285l408.831,490.79c3.42,4.105,8.487,6.479,13.831,6.479h66.604c9.941,0,18-8.059,18-18
			v-89.485c0-4.21-1.476-8.286-4.17-11.521L3901.387,496.213z"/>
	</g>
	<path style="fill:#FFFFFF;" d="M6336,0c-9.941,0-18,8.059-18,18v715.365c0,3.566-2.36,6.701-5.786,7.688
		c-3.427,0.987-7.092-0.413-8.989-3.433L5845.292,8.427C5841.999,3.183,5836.241,0,5830.049,0H5686c-9.941,0-18,8.059-18,18v964
		c0,9.941,8.059,18,18,18h114c9.941,0,18-8.059,18-18V266.635c0-3.566,2.36-6.701,5.786-7.688c3.427-0.987,7.092,0.413,8.989,3.433
		l457.933,729.193c3.293,5.244,9.051,8.427,15.244,8.427H6450c9.941,0,18-8.059,18-18V18c0-9.941-8.059-18-18-18H6336z"/>
	<path style="fill:#FFFFFF;" d="M3094.044,140c9.941,0,18-8.059,18-18V18c0-9.941-8.059-18-18-18h-589c-9.941,0-18,8.059-18,18v964
		c0,9.941,8.059,18,18,18h614c9.941,0,18-8.059,18-18V878c0-9.941-8.059-18-18-18h-474c-4.418,0-8-3.582-8-8V569
		c0-4.418,3.582-8,8-8h376c9.941,0,18-8.059,18-18V439c0-9.941-8.059-18-18-18h-376c-4.418,0-8-3.582-8-8V148c0-4.418,3.582-8,8-8
		H3094.044z"/>
	<path style="fill:#FFFFFF;" d="M842.097,0c-7.315,0-13.903,4.427-16.666,11.2L507.407,790.669c-1.228,3.01-4.156,4.978-7.407,4.978
		s-6.179-1.968-7.407-4.978L174.57,11.2C171.806,4.427,165.219,0,157.903,0H18C8.059,0,0,8.059,0,18v964c0,9.941,8.059,18,18,18h114
		c9.941,0,18-8.059,18-18V363.922c0-2.868,2.03-5.336,4.845-5.888s5.627,0.965,6.71,3.621L417.43,988.8
		c2.763,6.773,9.351,11.2,16.666,11.2h131.807c7.315,0,13.903-4.427,16.666-11.2l255.875-627.144
		c1.084-2.656,3.896-4.173,6.71-3.621s4.845,3.019,4.845,5.888V982c0,9.941,8.059,18,18,18h114c9.941,0,18-8.059,18-18V18
		c0-9.941-8.059-18-18-18H842.097z"/>
	<path style="fill:#FFFFFF;" d="M1824.89,11.709C1822.263,4.668,1815.539,0,1808.025,0h-129.005
		c-7.515,0-14.239,4.668-16.865,11.709l-324.975,871.248c-0.751,2.012-1.135,4.143-1.135,6.291V982c0,9.941,8.059,18,18,18h80.981
		c7.515,0,14.239-4.668,16.865-11.709l77.801-208.581c2.626-7.041,9.35-11.709,16.865-11.709h393.933
		c7.515,0,14.239,4.668,16.865,11.709l77.801,208.581c2.626,7.041,9.35,11.709,16.865,11.709H2133c9.941,0,18-8.059,18-18v-92.752
		c0-2.148-0.384-4.278-1.135-6.291L1824.89,11.709z M1597.8,628c-2.621,0-5.076-1.284-6.571-3.438
		c-1.495-2.153-1.84-4.902-0.924-7.358l145.722-390.675c1.167-3.129,4.156-5.204,7.496-5.204s6.328,2.075,7.496,5.204
		l145.722,390.675c0.916,2.456,0.571,5.205-0.924,7.358c-1.495,2.153-3.95,3.438-6.571,3.438H1597.8z"/>
	<path style="fill:#FFFFFF;" d="M5005.89,11.709C5003.263,4.668,4996.54,0,4989.024,0H4860.02c-7.515,0-14.239,4.668-16.865,11.709
		l-324.975,871.248c-0.751,2.012-1.135,4.143-1.135,6.291V982c0,9.941,8.059,18,18,18h80.98c7.515,0,14.239-4.668,16.865-11.709
		l77.801-208.581c2.626-7.041,9.35-11.709,16.865-11.709h393.933c7.515,0,14.239,4.668,16.865,11.709l77.801,208.581
		c2.626,7.041,9.35,11.709,16.865,11.709H5314c9.941,0,18-8.059,18-18v-92.752c0-2.148-0.384-4.278-1.135-6.291L5005.89,11.709z
		 M4778.8,628c-2.622,0-5.077-1.284-6.571-3.438c-1.495-2.153-1.84-4.902-0.924-7.358l145.722-390.675
		c1.167-3.129,4.156-5.204,7.496-5.204s6.328,2.075,7.496,5.204l145.722,390.675c0.916,2.456,0.571,5.205-0.924,7.358
		c-1.495,2.153-3.95,3.438-6.571,3.438H4778.8z"/>
</g>
</svg>
