<?xml version="1.0" encoding="iso-8859-1"?>
<!-- Generator: Adobe Illustrator 19.0.0, SVG Export Plug-In . SVG Version: 6.00 Build 0)  -->
<svg version="1.1" id="list" xmlns="http://www.w3.org/2000/svg" xmlns:xlink="http://www.w3.org/1999/xlink" x="0px" y="0px"
	 viewBox="0 0 2000 2000" style="enable-background:new 0 0 2000 2000;" xml:space="preserve">
<g id="XMLID_633_">
	<path id="XMLID_635_" style="fill:#010101;" d="M1458.293,1035.253c-21.152,239.723-218.571,423.04-458.293,423.04
		c-253.824,0-458.293-204.469-458.293-458.293c0-239.723,190.368-437.141,423.04-458.293V471.2
		C689.771,492.352,471.2,717.973,471.2,1000c0,289.077,239.723,528.8,528.8,528.8c282.027,0,507.648-218.571,528.8-493.547H1458.293
		z"/>
	<polygon id="XMLID_634_" style="fill:#010101;" points="943.595,1007.051 992.949,1056.405 1387.787,661.568 1387.787,894.24 
		1458.293,894.24 1458.293,541.707 1105.76,541.707 1105.76,612.213 1338.432,612.213 	"/>
</g>
</svg>
