<?xml version="1.0" encoding="iso-8859-1"?>
<!-- Generator: Adobe Illustrator 19.0.0, SVG Export Plug-In . SVG Version: 6.00 Build 0)  -->
<svg version="1.1" id="Layer_1" xmlns="http://www.w3.org/2000/svg" xmlns:xlink="http://www.w3.org/1999/xlink" x="0px" y="0px"
	 viewBox="0 0 2000 2000" style="enable-background:new 0 0 2000 2000;" xml:space="preserve">
<g id="XMLID_98_">
	<path id="XMLID_70_" d="M1581.631,881.294c65.897,0,119.303,53.038,119.303,118.47c0,65.422-53.406,118.46-119.303,118.46
		c-65.884,0-119.29-53.038-119.29-118.46C1462.341,934.331,1515.747,881.294,1581.631,881.294z"/>
	<path id="XMLID_68_" d="M1000.988,881.294c65.895,0,119.301,53.038,119.301,118.47c0,65.422-53.406,118.46-119.301,118.46
		c-65.884,0-119.293-53.038-119.293-118.46C881.696,934.331,935.104,881.294,1000.988,881.294z"/>
	<path id="XMLID_41_" d="M420.343,881.294c65.884,0,119.303,53.038,119.303,118.47c0,65.422-53.419,118.46-119.303,118.46
		s-119.301-53.038-119.301-118.46C301.042,934.331,354.459,881.294,420.343,881.294z"/>
</g>
</svg>
