<?xml version="1.0" encoding="utf-8"?>
<!-- Generator: Adobe Illustrator 19.0.0, SVG Export Plug-In . SVG Version: 6.00 Build 0)  -->
<svg version="1.1" id="Type" xmlns="http://www.w3.org/2000/svg" xmlns:xlink="http://www.w3.org/1999/xlink" x="0px" y="0px"
	 viewBox="0 0 200 200" style="enable-background:new 0 0 200 200;" xml:space="preserve">
<style type="text/css">
	.st0{fill:#FFFFFF;}
</style>
<path class="st0" d="M0,0v200h200V0H0z M85,120.5c0,0.4-0.3,0.8-0.8,0.8h-4.8c-0.4,0-0.8-0.3-0.8-0.8V94.2c0-0.1-0.1-0.2-0.2-0.3
	c-0.1,0-0.2,0-0.3,0.2l-10.9,26.7c-0.1,0.3-0.4,0.5-0.7,0.5H61c-0.3,0-0.6-0.2-0.7-0.5L49.4,94.1c0-0.1-0.2-0.2-0.3-0.2
	c-0.1,0-0.2,0.1-0.2,0.3v26.3c0,0.4-0.3,0.8-0.8,0.8h-4.8c-0.4,0-0.8-0.3-0.8-0.8v-41c0-0.4,0.3-0.8,0.8-0.8h5.9
	c0.3,0,0.6,0.2,0.7,0.5l13.5,33.1c0.1,0.1,0.2,0.2,0.3,0.2s0.3-0.1,0.3-0.2l13.5-33.1c0.1-0.3,0.4-0.5,0.7-0.5h5.9
	c0.4,0,0.8,0.3,0.8,0.8V120.5z M114.8,101.8c0,0.4-0.3,0.8-0.8,0.8H98.5c-0.4,0-0.8-0.3-0.8-0.8v-4.4c0-0.4,0.3-0.8,0.8-0.8h15.6
	c0.4,0,0.8,0.3,0.8,0.8V101.8z M133.9,120.5c0,0.4-0.3,0.8-0.8,0.8h-4.8c-0.4,0-0.8-0.3-0.8-0.8v-41c0-0.4,0.3-0.8,0.8-0.8h4.8
	c0.4,0,0.8,0.3,0.8,0.8V120.5z M157.5,120.5c0,0.4-0.3,0.8-0.8,0.8h-2.8c-0.2,0-0.4-0.1-0.6-0.3l-17.4-20.9c-0.2-0.3-0.2-0.7,0-1
	L153.3,79c0.1-0.2,0.4-0.3,0.6-0.3h2.7c0.4,0,0.8,0.3,0.8,0.8v3.8c0,0.2-0.1,0.4-0.2,0.5l-13.5,15.6c-0.1,0.1-0.1,0.3,0,0.4
	l13.6,16.4c0.1,0.1,0.2,0.3,0.2,0.5V120.5z"/>
</svg>
