<?xml version="1.0" encoding="iso-8859-1"?>
<!-- Generator: Adobe Illustrator 19.0.0, SVG Export Plug-In . SVG Version: 6.00 Build 0)  -->
<svg version="1.1" id="Layer_1" xmlns="http://www.w3.org/2000/svg" xmlns:xlink="http://www.w3.org/1999/xlink" x="0px" y="0px"
	 viewBox="473 501 2946.956 1000" style="enable-background:new 473 501 2946.956 1000;" xml:space="preserve">
<g>
	<path style="fill:#111111;" d="M605,501H491c-9.941,0-18,8.059-18,18v964c0,9.941,8.059,18,18,18h114c9.941,0,18-8.059,18-18V519
		C623,509.059,614.941,501,605,501z"/>
	<path style="fill:#111111;" d="M853.343,997.213c-2.505-3.008-2.466-7.386,0.092-10.349l316.745-366.796
		c2.823-3.269,4.377-7.445,4.377-11.764V519c0-9.941-8.059-18-18-18h-63.317c-5.232,0-10.204,2.276-13.623,6.236L670.98,980.446
		c-5.756,6.666-5.844,16.518-0.207,23.285l408.831,490.79c3.42,4.105,8.487,6.479,13.83,6.479h66.604c9.941,0,18-8.059,18-18
		v-89.485c0-4.21-1.475-8.286-4.17-11.521L853.343,997.213z"/>
	<path style="fill:#111111;" d="M3401.956,501h-114c-9.941,0-18,8.059-18,18v715.365c0,3.566-2.36,6.701-5.786,7.688
		c-3.426,0.987-7.092-0.413-8.989-3.433l-457.933-729.193c-3.293-5.244-9.051-8.427-15.243-8.427h-144.049c-9.941,0-18,8.059-18,18
		v964c0,9.941,8.059,18,18,18h114c9.941,0,18-8.059,18-18V767.635c0-3.566,2.36-6.701,5.786-7.688
		c3.426-0.987,7.092,0.413,8.989,3.433l457.933,729.193c3.293,5.244,9.051,8.427,15.243,8.427h144.049c9.941,0,18-8.059,18-18V519
		C3419.956,509.059,3411.897,501,3401.956,501z"/>
	<path style="fill:#111111;" d="M1957.846,512.709c-2.627-7.041-9.351-11.709-16.865-11.709h-129.005
		c-7.515,0-14.239,4.668-16.865,11.709l-324.976,871.248c-0.751,2.012-1.135,4.143-1.135,6.291V1483c0,9.941,8.059,18,18,18h80.981
		c7.515,0,14.239-4.668,16.865-11.709l77.801-208.581c2.626-7.041,9.35-11.709,16.865-11.709h393.933
		c7.515,0,14.239,4.668,16.865,11.709l77.801,208.581c2.626,7.041,9.35,11.709,16.865,11.709h80.981c9.941,0,18-8.059,18-18v-92.752
		c0-2.148-0.384-4.278-1.135-6.291L1957.846,512.709z M2028.773,1125.562c-1.495,2.153-3.95,3.438-6.571,3.438h-291.446
		c-2.621,0-5.076-1.284-6.571-3.438c-1.495-2.153-1.84-4.902-0.924-7.358l145.722-390.675c1.167-3.129,4.156-5.204,7.496-5.204
		s6.328,2.075,7.496,5.204l145.722,390.675C2030.613,1120.66,2030.268,1123.409,2028.773,1125.562z"/>
</g>
</svg>
