<?xml version="1.0" encoding="iso-8859-1"?>
<!-- Generator: Adobe Illustrator 19.0.0, SVG Export Plug-In . SVG Version: 6.00 Build 0)  -->
<svg version="1.1" id="Layer_1" xmlns="http://www.w3.org/2000/svg" xmlns:xlink="http://www.w3.org/1999/xlink" x="0px" y="0px"
	 viewBox="569 501 3137.044 1000" style="enable-background:new 569 501 3137.044 1000;" xml:space="preserve">
<path id="XMLID_27_" style="fill:#FFFFFF;" d="M3663.044,641c9.941,0,18-8.059,18-18V519c0-9.941-8.059-18-18-18h-589
	c-9.941,0-18,8.059-18,18v964c0,9.941,8.059,18,18,18h614c9.941,0,18-8.059,18-18v-104c0-9.941-8.059-18-18-18h-474
	c-4.418,0-8-3.582-8-8v-283c0-4.418,3.582-8,8-8h376c9.941,0,18-8.059,18-18V940c0-9.941-8.059-18-18-18h-376c-4.418,0-8-3.582-8-8
	V649c0-4.418,3.582-8,8-8H3663.044z"/>
<path id="XMLID_24_" style="fill:#FFFFFF;" d="M1411.097,501c-7.315,0-13.903,4.427-16.666,11.2l-318.024,779.469
	c-1.228,3.01-4.156,4.978-7.407,4.978s-6.179-1.968-7.407-4.978L743.57,512.2c-2.764-6.773-9.351-11.2-16.667-11.2H587
	c-9.941,0-18,8.059-18,18v964c0,9.941,8.059,18,18,18h114c9.941,0,18-8.059,18-18V864.922c0-2.868,2.03-5.336,4.845-5.888
	c2.815-0.552,5.627,0.965,6.71,3.621L986.43,1489.8c2.763,6.773,9.351,11.2,16.666,11.2h131.807c7.315,0,13.903-4.427,16.666-11.2
	l255.875-627.144c1.084-2.656,3.896-4.173,6.71-3.621s4.845,3.019,4.845,5.888V1483c0,9.941,8.059,18,18,18h114
	c9.941,0,18-8.059,18-18V519c0-9.941-8.059-18-18-18H1411.097z"/>
<path id="XMLID_15_" style="fill:#FFFFFF;" d="M2393.89,512.709c-2.627-7.041-9.351-11.709-16.865-11.709H2248.02
	c-7.515,0-14.239,4.668-16.865,11.709l-324.975,871.248c-0.751,2.012-1.135,4.143-1.135,6.291V1483c0,9.941,8.059,18,18,18h80.981
	c7.515,0,14.239-4.668,16.865-11.709l77.801-208.581c2.626-7.041,9.35-11.709,16.865-11.709h393.933
	c7.515,0,14.239,4.668,16.865,11.709l77.801,208.581c2.626,7.041,9.35,11.709,16.865,11.709H2702c9.941,0,18-8.059,18-18v-92.752
	c0-2.148-0.384-4.278-1.135-6.291L2393.89,512.709z M2166.8,1129c-2.621,0-5.076-1.284-6.571-3.438
	c-1.495-2.153-1.84-4.902-0.924-7.358l145.722-390.675c1.167-3.129,4.156-5.204,7.496-5.204c3.34,0,6.328,2.075,7.496,5.204
	l145.722,390.675c0.916,2.456,0.571,5.205-0.924,7.358c-1.495,2.153-3.95,3.438-6.571,3.438H2166.8z"/>
</svg>
